<svg width="64" height="64" viewBox="0 0 64 64" fill="none" xmlns="http://www.w3.org/2000/svg">
    <mask id="mask0_110_2" style="mask-type:luminance" maskUnits="userSpaceOnUse" x="4" y="7" width="56" height="51">
        <path d="M4 7.55212H60V57.2798H4V7.55212Z" fill="#000"/>
    </mask>
    <g mask="url(#mask0_110_2)">
        <path d="M39.9038 26.0286L36.3562 18.132L40.4883 18.0774L44.0302 26.0258L39.9038 26.0286ZM34.5321 16.2014H37.061C37.6555 16.179 37.9036 16.1022 38.2406 15.9033C38.5777 15.7049 38.8369 15.4326 39.0184 15.0868C39.1999 14.7413 39.2906 14.0509 39.2906 13.6013C39.2906 13.1347 39.2118 12.7177 38.9958 12.3718C38.7795 12.0263 38.448 11.7652 38.0591 11.5664C37.6702 11.3679 37.2624 11.2779 36.6233 11.2683H34.5321V16.2014ZM28.7427 25.9998L32.2814 7.8605L36.9613 7.85459C38.1365 7.85459 39.191 8.10527 40.1243 8.6063C41.0577 9.10771 41.7966 9.79465 42.341 10.6671C42.8854 11.5399 43.1577 12.538 43.1577 13.6611C43.1577 14.8016 42.8854 15.8215 42.341 16.7199C41.7966 17.6186 41.0577 18.3314 40.1243 18.8584C39.191 19.3857 38.1365 19.649 36.9613 19.649H34.5321V25.9998H28.7427Z" fill="white"/>
        <path d="M34.5422 7.86993L32.2816 7.86051L23.8914 35.476L34.5395 35.4715L34.5422 7.86993Z" fill="white"/>
        <path d="M34.5417 57.2798L34.5164 28.7411L43.2285 28.7201" fill="white"/>
        <path d="M52.8815 26.4104C51.08 26.4104 49.5601 26.0947 48.322 25.4623C47.0835 24.8303 46.0228 23.9342 45.1394 22.7738L47.8413 19.7346C48.6898 20.895 49.5471 21.6743 50.4134 22.0725C51.2792 22.471 52.1711 22.6699 53.0893 22.6699C53.557 22.6699 53.9767 22.6094 54.3494 22.4881C54.7216 22.3671 55.0159 22.1893 55.2327 21.9555C55.449 21.7218 55.5574 21.4405 55.5574 21.1114C55.5574 20.8516 55.4925 20.6178 55.3626 20.41C55.2327 20.2022 55.0549 20.0204 54.83 19.8645C54.6047 19.7087 54.3449 19.5658 54.0506 19.4359C53.7559 19.306 53.4311 19.1981 53.0763 19.1112C52.7212 19.0248 52.3619 18.9468 51.9981 18.8774C50.9934 18.6696 50.1231 18.3969 49.3872 18.0592C48.6508 17.7215 48.0362 17.3148 47.5425 16.8384C47.049 16.3622 46.6807 15.8168 46.4384 15.2019C46.1957 14.5874 46.0747 13.8901 46.0747 13.1108C46.0747 12.0028 46.3905 11.0328 47.023 10.2015C47.655 9.37031 48.4909 8.72094 49.5301 8.25338C50.5692 7.78581 51.6949 7.55203 52.9074 7.55203C54.6741 7.55203 56.0986 7.83368 57.1812 8.39625C58.2634 8.95917 59.1252 9.73398 59.7662 10.721L57.0123 13.3965C56.4752 12.7041 55.8647 12.1846 55.1807 11.838C54.4963 11.4918 53.7819 11.3185 53.0373 11.3185C52.5348 11.3185 52.0932 11.3794 51.7123 11.5003C51.3312 11.6217 51.041 11.799 50.842 12.0328C50.6427 12.2666 50.5433 12.5483 50.5433 12.8771C50.5433 13.1543 50.6253 13.401 50.7901 13.6173C50.9545 13.8341 51.1838 14.02 51.4786 14.1758C51.7728 14.3317 52.1106 14.466 52.4918 14.5784C52.8726 14.6913 53.2712 14.7822 53.6868 14.8512C54.6392 15.042 55.501 15.2928 56.2719 15.6045C57.0424 15.9162 57.7048 16.3018 58.2593 16.7604C58.8135 17.2195 59.2421 17.7564 59.5454 18.3709C59.8482 18.9858 60.0001 19.6916 60.0001 20.4879C60.0001 21.7348 59.6968 22.7998 59.0907 23.6829C58.4842 24.5661 57.6443 25.2415 56.5707 25.7091C55.4965 26.1766 54.267 26.4104 52.8815 26.4104Z" fill="white"/>
        <path d="M13.9395 14.0597H18.4292C18.4332 14.0597 18.4368 14.0621 18.4383 14.0658L22.9547 25.9998L18.7386 26.0534L13.9304 14.0733C13.9277 14.0668 13.9324 14.0597 13.9395 14.0597Z" fill="white"/>
        <path d="M18.4383 14.0658L13.9271 14.0658L9.47291 25.9998L13.689 26.0534L18.4383 14.0658Z" fill="white"/>
        <path d="M28.4276 7.85452H23.9165L18.7411 26.0534L22.9572 25.9998L28.4276 7.85452Z" fill="white"/>
        <path d="M4 7.80566H8.51115L13.6916 26.0534L9.4671 26.0045L4 7.80566Z" fill="white"/>
        <path d="M58.5676 26.2262C58.6567 27.0672 58.7025 27.9209 58.7025 28.7852C58.7025 41.1243 49.4036 51.3323 37.4445 52.7729L37.0886 53.9427C39.602 53.6921 42.0457 53.0709 44.3804 52.0836C47.392 50.81 50.0965 48.9869 52.4189 46.6649C54.7412 44.3429 56.5647 41.6388 57.8385 38.6277C59.1574 35.51 59.8262 32.1985 59.8262 28.7852C59.8262 27.6199 59.7477 26.4667 59.5924 25.3288C59.2835 25.6581 58.9413 25.9573 58.5676 26.2262Z" fill="white"/>
        <path d="M33.0723 52.9028C20.426 52.1435 10.37 41.6169 10.37 28.7853C10.37 28.3479 10.3831 27.9136 10.4062 27.482L9.28127 27.469C9.25889 27.906 9.24634 28.3447 9.24634 28.7853C9.24634 32.1986 9.91507 35.5101 11.234 38.6278C12.5078 41.6389 14.3311 44.3429 16.6536 46.665C18.976 48.987 21.6805 50.8101 24.6921 52.0836C27.3628 53.2131 30.1759 53.865 33.0732 54.0289L33.0723 52.9028Z" fill="white"/>
    </g>
    <style>
        path { fill: #000; }
        @media (prefers-color-scheme: dark) {
            path { fill: #FFF; }
        }
    </style>
</svg>
